# xmcd CD database file
#
# Track frame offsets:
#	150
#	22847
#	44770
#	57265
#	79887
#	89620
#	108375
#	122987
#	142122
#	163232
#	181700
#	204367
#
# Disc length: 2928 seconds
#
# Revision: 3
# Processed by: cddbd v1.5.2PL0 Copyright (c) Steve Scherf et al.
# Submitted via: CDex 1.51
#
DISCID=a80b6e0c
DTITLE=IN FLAMES - The Jester Race
DYEAR=1998
DGENRE=Melodic Death Metal
TTITLE0=01 - Dead Eternity
TTITLE1=02 - The Jester Race
TTITLE2=03 - Graveland
TTITLE3=04 - Moonshield
TTITLE4=05 - The Jester's Dance
TTITLE5=06 - December Flower
TTITLE6=07 - Artifacts of the Black Rain
TTITLE7=08 - Dead God In Me
TTITLE8=09 - Wayfaerer
TTITLE9=10 - Lord Hypnos
TTITLE10=11 - Dead Eternity (Demo)
TTITLE11=12 - The Inborn Lifeless (Demo)
EXTD=\n YEAR: 1998
EXTT0=
EXTT1=
EXTT2=
EXTT3=
EXTT4=
EXTT5=
EXTT6=
EXTT7=
EXTT8=
EXTT9=
EXTT10=
EXTT11=
PLAYORDER=
